<?xml version="1.0" encoding="UTF-8"?> <svg xmlns="http://www.w3.org/2000/svg" width="102" height="102" viewBox="0 0 102 102" fill="none"><path d="M64.0355 41.7667L63.8604 42.4H64.5174H81.413C84.2406 42.4 86.645 43.0802 88.3295 44.3568C89.9973 45.6208 91 47.4978 91 50.0067C91 52.3526 89.5871 54.7486 87.6687 56.194L87.3101 56.4642L87.5403 56.8497C88.2934 58.1107 88.9826 59.5278 88.9826 60.9C88.9826 63.2043 87.3617 65.3463 85.4341 66.5565L85.0814 66.778L85.2355 67.165C85.7159 68.3715 85.9565 69.5753 85.9565 71.0333C85.9565 74.0658 83.8696 76.4508 80.9678 77.6654L80.4754 77.8716L80.7133 78.3494C80.9037 78.732 80.913 79.1136 80.913 79.9C80.913 81.5023 80.0514 83.277 78.5519 84.6628C77.0599 86.0417 74.972 87 72.587 87H48.6304C46.1301 87 43.8109 85.9144 41.3955 84.7837C41.0238 84.6097 40.6498 84.4347 40.2726 84.2623L40.1965 84.2241C37.9374 83.0892 35.9679 82.0998 34 81.9523V46.4511C39.5224 42.1399 46.3019 35.8007 49.0961 28.6554L49.1135 28.6109L49.1222 28.564L51.6376 14.9184C51.7554 14.5669 51.8629 14.3099 52.0101 14.0881C52.1549 13.8699 52.3525 13.6648 52.6748 13.4465C54.8398 12.242 56.511 12 58.7174 12C59.5262 12 60.3497 12.1734 61.1353 12.6355C61.9213 13.0979 62.6982 13.8662 63.3874 15.1004C64.7749 17.5852 65.7826 21.9153 65.7826 29.2333C65.7826 32.9896 65.284 37.2514 64.0355 41.7667ZM81.9034 71.3843L81.913 71.336V71.2867V70.78C81.913 69.1425 81.4295 68.171 81.0417 67.3918L81.0411 67.3905C80.6667 66.6383 80.4344 66.1531 80.6353 65.336C80.7159 65.0615 80.9324 64.815 81.3209 64.544C81.5786 64.3643 81.8558 64.2086 82.1635 64.0358C82.3447 63.9341 82.5364 63.8264 82.7409 63.7044C83.7845 63.082 84.9391 62.1922 84.9391 60.3933C84.9391 58.704 84.2243 57.7066 83.6357 56.9511L83.6013 56.9068C83.0138 56.153 82.7394 55.8009 82.8996 55.2211C82.9785 54.9933 83.1745 54.7717 83.5291 54.5009C83.7049 54.3666 83.9014 54.2332 84.1208 54.0844L84.1213 54.0841C84.3365 53.9382 84.5711 53.7791 84.8031 53.6043C85.2682 53.2539 85.7483 52.822 86.1097 52.2366C86.4753 51.6443 86.7044 50.9195 86.7044 50.0067C86.7044 48.8831 85.9835 47.9857 85.0147 47.3948C84.0416 46.8013 82.7505 46.4667 81.413 46.4667H58.7174C58.0752 46.4667 57.5786 46.2539 57.2435 45.9173C56.9082 45.5805 56.6957 45.0804 56.6957 44.4333C56.6957 43.7863 56.9082 43.2862 57.2435 42.9494C57.5786 42.6128 58.0752 42.4 58.7174 42.4H59.2217H59.6076L59.7054 42.0267C60.9701 37.1989 61.7391 33.0971 61.7391 29.2333C61.7391 24.3882 61.2318 21.1722 60.6477 19.1512C60.3561 18.142 60.0418 17.4185 59.7535 16.9357C59.6101 16.6957 59.465 16.5014 59.3215 16.36C59.2498 16.2893 59.169 16.2224 59.0795 16.1705C58.9946 16.1213 58.8691 16.0667 58.7174 16.0667H58.6894C57.4496 16.0667 56.6383 16.0666 55.5695 16.3351L55.2561 16.4138L55.1991 16.7318L52.9296 29.3985L52.9217 29.4422V29.4867V29.9099C49.928 38.5847 42.002 45.5717 35.7183 50.3693L35.5217 50.5193V50.7667V77.3667V77.7566L35.8999 77.8516C37.854 78.3424 39.8206 79.3277 41.8495 80.3468L41.934 80.3892C44.3843 81.6202 46.494 82.68 48.6304 82.68H72.587C73.6723 82.68 74.7157 82.4086 75.5041 81.9046C76.2958 81.3985 76.8696 80.625 76.8696 79.6467C76.8696 78.4603 76.7352 77.6585 76.637 77.0722C76.6159 76.9464 76.5965 76.8305 76.5804 76.7228C76.5349 76.4185 76.52 76.2052 76.5461 76.007C76.5703 75.8231 76.6338 75.6255 76.7834 75.3691C76.8282 75.3157 76.9087 75.246 77.0449 75.1621C77.1928 75.0711 77.3803 74.9789 77.6068 74.8795C77.797 74.796 78.0025 74.7126 78.2244 74.6225C78.2668 74.6053 78.3098 74.5878 78.3533 74.5701C78.6216 74.4609 78.9081 74.3426 79.1945 74.211C80.312 73.6978 81.5997 72.9101 81.9034 71.3843Z" fill="white" stroke="#36CAC2"></path><path d="M15.5 46.1111H15V46.6111V82.3889V82.8889H15.5H30.5H31V82.3889V46.6111V46.1111H30.5H15.5ZM30.5 87H15.5C13.0364 87 11 84.9343 11 82.3889V46.6111C11 44.0657 13.0364 42 15.5 42H30.5C32.9636 42 35 44.0657 35 46.6111V82.3889C35 84.9343 32.9636 87 30.5 87Z" fill="white" stroke="#36CAC2"></path></svg> 