<?xml version="1.0" encoding="UTF-8"?> <svg xmlns="http://www.w3.org/2000/svg" width="101" height="101" viewBox="0 0 101 101" fill="none"><g clip-path="url(#clip0_254_406)"><path d="M33.4511 68.361C33.7277 68.4532 33.9834 68.599 34.2036 68.7901C34.4238 68.9813 34.6042 69.2139 34.7344 69.4748C34.8647 69.7357 34.9422 70.0196 34.9626 70.3105C34.983 70.6014 34.9459 70.8934 34.8534 71.1699L32.6346 77.8261C32.551 78.1127 32.4105 78.3794 32.2215 78.6103C32.0324 78.8413 31.7987 79.0317 31.5344 79.1702C31.27 79.3087 30.9804 79.3925 30.6829 79.4165C30.3854 79.4405 30.0861 79.4042 29.803 79.3098C29.5198 79.2154 29.2587 79.0649 29.035 78.8672C28.8114 78.6695 28.63 78.4287 28.5016 78.1593C28.3732 77.8899 28.3005 77.5973 28.2879 77.2991C28.2752 77.0009 28.3228 76.7033 28.4279 76.4239L30.6466 69.7676C30.832 69.2092 31.2316 68.7473 31.7576 68.4835C32.2835 68.2197 32.8927 68.1757 33.4511 68.361ZM46.7636 68.361C47.0402 68.4532 47.2959 68.599 47.5161 68.7901C47.7363 68.9813 47.9167 69.2139 48.0469 69.4748C48.1772 69.7357 48.2547 70.0196 48.2751 70.3105C48.2955 70.6014 48.2584 70.8934 48.1659 71.1699L43.7284 84.4824C43.6448 84.7689 43.5043 85.0356 43.3152 85.2666C43.1262 85.4975 42.8925 85.688 42.6281 85.8265C42.3637 85.965 42.0741 86.0487 41.7766 86.0727C41.4792 86.0967 41.1799 86.0604 40.8967 85.966C40.6136 85.8717 40.3524 85.7211 40.1288 85.5234C39.9052 85.3258 39.7238 85.085 39.5954 84.8156C39.467 84.5461 39.3943 84.2536 39.3816 83.9554C39.3689 83.6572 39.4166 83.3595 39.5216 83.0801L43.9591 69.7676C44.1445 69.2092 44.5441 68.7473 45.0701 68.4835C45.596 68.2197 46.2052 68.1757 46.7636 68.361ZM60.0761 68.361C60.3527 68.4532 60.6084 68.599 60.8286 68.7901C61.0488 68.9813 61.2292 69.2139 61.3594 69.4748C61.4897 69.7357 61.5672 70.0196 61.5876 70.3105C61.608 70.6014 61.5709 70.8934 61.4784 71.1699L59.2596 77.8261C59.176 78.1127 59.0355 78.3794 58.8465 78.6103C58.6574 78.8413 58.4237 79.0317 58.1594 79.1702C57.895 79.3087 57.6054 79.3925 57.3079 79.4165C57.0104 79.4405 56.7111 79.4042 56.428 79.3098C56.1448 79.2154 55.8836 79.0649 55.66 78.8672C55.4364 78.6695 55.255 78.4287 55.1266 78.1593C54.9982 77.8899 54.9255 77.5973 54.9129 77.2991C54.9002 77.0009 54.9478 76.7033 55.0529 76.4239L57.2716 69.7676C57.457 69.2092 57.8566 68.7473 58.3826 68.4835C58.9085 68.2197 59.5177 68.1757 60.0761 68.361ZM73.3886 68.361C73.6652 68.4532 73.9209 68.599 74.1411 68.7901C74.3613 68.9813 74.5417 69.2139 74.6719 69.4748C74.8022 69.7357 74.8797 70.0196 74.9001 70.3105C74.9205 70.6014 74.8834 70.8934 74.7909 71.1699L70.3534 84.4824C70.2698 84.7689 70.1293 85.0356 69.9402 85.2666C69.7512 85.4975 69.5175 85.688 69.2531 85.8265C68.9887 85.965 68.6991 86.0487 68.4016 86.0727C68.1041 86.0967 67.8049 86.0604 67.5217 85.966C67.2386 85.8717 66.9774 85.7211 66.7538 85.5234C66.5302 85.3258 66.3488 85.085 66.2204 84.8156C66.092 84.5461 66.0193 84.2536 66.0066 83.9554C65.9939 83.6572 66.0416 83.3595 66.1466 83.0801L70.5841 69.7676C70.7695 69.2092 71.1691 68.7473 71.6951 68.4835C72.221 68.2197 72.8302 68.1757 73.3886 68.361ZM74.4847 37.3073C73.5632 32.662 71.1797 28.4333 67.6829 25.2395C64.186 22.0457 59.7591 20.0543 55.0495 19.5565C50.3399 19.0587 45.5945 20.0806 41.5072 22.4728C37.42 24.865 34.2052 28.502 32.3329 32.8521C30.2332 32.6102 28.1063 32.7994 26.0823 33.4081C24.0583 34.0169 22.1798 35.0323 20.5619 36.3922C18.944 37.7522 17.6207 39.428 16.673 41.3172C15.7253 43.2063 15.1732 45.2691 15.0504 47.379C14.9276 49.489 15.2368 51.6018 15.959 53.5882C16.6811 55.5745 17.8011 57.3926 19.2504 58.931C20.6996 60.4694 22.4476 61.6959 24.3873 62.5352C26.3271 63.3746 28.4177 63.8092 30.5312 63.8125H72.6875C76.0649 63.8164 79.3175 62.5364 81.7865 60.2318C84.2555 57.9272 85.7562 54.7703 85.9847 51.4006C86.2132 48.0309 85.1523 44.7004 83.0171 42.0836C80.8818 39.4668 77.8317 37.7594 74.4847 37.3073Z" fill="white"></path></g><defs><clipPath id="clip0_254_406"><rect width="71" height="71" fill="white" transform="translate(15 15)"></rect></clipPath></defs></svg> 