<?xml version="1.0" encoding="UTF-8"?> <svg xmlns="http://www.w3.org/2000/svg" width="101" height="101" viewBox="0 0 101 101" fill="none"><path d="M26.0252 55.6236L26.0253 55.6236L26.0222 55.6126C25.7312 54.5617 25.1176 53.7809 24.2864 53.2587C23.5038 52.7669 22.5976 52.5469 21.7437 52.4368C20.8821 52.3257 19.9478 52.3127 19.0475 52.3174C18.7655 52.3188 18.4883 52.3219 18.2136 52.325C17.5775 52.3322 16.9551 52.3392 16.3199 52.3249C14.521 52.2835 13.0359 52.0693 11.9719 51.4121C11.035 50.8334 10.2026 49.7677 10.0393 47.4085L10.0383 47.3941L10.037 47.3797C9.93106 46.1836 10.2998 45.4532 10.8956 44.8713C11.5729 44.2098 12.5897 43.7004 13.8632 43.1783C14.076 43.0925 14.3004 43.0049 14.532 42.9145C15.5845 42.5035 16.7875 42.0339 17.7351 41.4122C19.004 40.5797 20.0603 39.3277 20.1002 37.3771C20.1755 35.7264 19.6504 34.3589 19.0279 33.2205C18.7189 32.6555 18.3736 32.1255 18.0602 31.6499C18.0307 31.6051 18.0015 31.5608 17.9726 31.517C17.6847 31.0805 17.4301 30.6944 17.2063 30.3071C16.7186 29.463 16.497 28.8073 16.5414 28.1435C16.5844 27.5011 16.8961 26.5999 18.0025 25.3257C18.9096 24.6027 19.6934 24.2724 20.3697 24.159C21.0642 24.0425 21.7556 24.1363 22.4911 24.4226C24.0505 25.0298 25.6099 26.4072 27.4207 28.1102C27.5359 28.2186 27.6522 28.3283 27.7696 28.4389C29.3861 29.9638 31.1978 31.6727 33.1483 32.6673C34.2292 33.2185 35.4198 33.5901 36.7118 33.5832C38.0161 33.5763 39.3183 33.1841 40.6113 32.3681L40.6236 32.3603L40.6358 32.3523C41.7811 31.5981 42.504 30.5999 42.7453 29.3944C42.9741 28.2518 42.7311 27.1114 42.3521 26.0976C41.7691 24.5386 40.6713 22.8304 39.6747 21.28C39.4187 20.8817 39.1695 20.4939 38.9373 20.1216C38.3351 19.156 37.8175 18.2637 37.4566 17.4392C37.0913 16.6045 36.9383 15.9526 36.9544 15.4505C36.9685 15.0111 37.1099 14.6358 37.5035 14.261C37.9424 13.8431 38.7548 13.3745 40.2063 12.9778L40.2111 12.9764C41.4017 12.6467 42.3133 12.6291 43.0285 12.7769C43.7346 12.9228 44.3363 13.2475 44.8888 13.7397C46.0582 14.7816 46.9473 16.5042 47.905 18.6964L47.905 18.6964L47.9099 18.7075C48.0847 19.0988 48.2614 19.5055 48.4422 19.9214C49.2159 21.7016 50.0632 23.6511 51.1414 25.2865C52.5104 27.3632 54.3912 29.1662 57.2466 29.7113L57.2554 29.713C61.2822 30.4568 64.6087 28.4102 67.3321 25.7364C69.4937 23.6142 71.4957 20.8725 73.3477 18.3362C73.8151 17.696 74.273 17.0689 74.7215 16.4682C75.8584 14.9453 76.9507 13.5732 78.0341 12.4726C79.1259 11.3634 80.1281 10.6145 81.0625 10.2407C81.9435 9.88832 82.7832 9.85798 83.6936 10.2343C84.6601 10.6337 85.8269 11.5434 87.1814 13.323L87.1906 13.3351L87.2 13.3471C88.6829 15.2155 89.3257 16.6931 89.4889 17.852C89.6452 18.961 89.381 19.9002 88.7729 20.7893C88.1369 21.719 87.1104 22.6091 85.7361 23.4912C84.3743 24.3652 82.761 25.1754 81.0238 25.9872C80.3713 26.2723 79.6969 26.5589 79.0132 26.8495C76.1461 28.0682 73.1158 29.3562 70.8531 30.8886C69.4283 31.8535 68.1527 33.0109 67.3943 34.4575C66.6037 35.9652 66.4393 37.6665 67.0435 39.5186L67.0448 39.5224C67.4229 40.6709 68.0888 41.5646 69.0892 42.0706C70.0391 42.551 71.0782 42.5715 72.0006 42.45C72.9292 42.3277 73.9076 42.0372 74.841 41.7241C75.2923 41.5727 75.7536 41.4087 76.2072 41.2475L76.272 41.2245C76.7513 41.0541 77.224 40.8866 77.6972 40.7289L77.7019 40.7273C79.6356 40.0757 81.2859 39.7124 82.6172 40.0118C83.7559 40.2678 84.9712 41.0898 85.8608 43.703L85.8616 43.7053C86.3376 45.096 86.3531 46.049 86.1843 46.702C86.0231 47.3254 85.6549 47.8299 85.0319 48.2701C83.6702 49.232 81.3417 49.721 78.458 50.0179C77.3345 50.1335 76.1878 50.2158 75.0405 50.2981C74.7558 50.3185 74.4711 50.339 74.1866 50.3599C72.7765 50.4637 71.3724 50.5803 70.1222 50.7748C68.8936 50.9659 67.6812 51.2503 66.7126 51.7525C65.7138 52.2703 64.7894 53.1278 64.5876 54.4843C64.2252 56.8408 65.6681 58.3789 67.1493 59.392C67.8965 59.9031 68.75 60.3525 69.5781 60.7666C69.8607 60.9079 70.1375 61.0437 70.4105 61.1778C70.9674 61.4511 71.5087 61.7168 72.0513 62.0051C73.6812 62.8928 74.8612 63.7675 75.4364 64.8461C75.9416 65.7933 76.1289 67.2001 75.0163 69.5677C74.1595 70.9732 73.3055 71.8234 72.505 72.3219C71.7082 72.8182 70.8929 73.0111 70.0318 72.9931C68.2109 72.9549 66.1719 71.9824 63.8897 70.63C63.4688 70.3806 63.0364 70.1171 62.5967 69.8492C60.8043 68.757 58.8904 67.5908 57.1388 67.0007C56.0071 66.6195 54.774 66.4115 53.5466 66.6871C52.2999 66.967 51.2383 67.7049 50.3833 68.8727C48.491 71.0038 48.3857 73.6806 48.7595 76.1241C49.0079 77.7479 49.5225 79.5319 49.9954 81.1714C50.2179 81.9425 50.4312 82.6817 50.6031 83.3572C51.1972 85.713 51.3579 87.4137 50.8299 88.5934C50.3919 89.5721 49.2418 90.6376 45.8872 91.0699C44.7225 90.8873 43.9789 90.5299 43.4922 90.1247C42.9899 89.7065 42.6538 89.1482 42.453 88.4047C42.0229 86.8119 42.2684 84.6209 42.7582 82.0015C42.8443 81.5408 42.9376 81.0664 43.0324 80.5837C43.4464 78.477 43.8916 76.212 43.9146 74.2367C43.9432 71.7834 43.325 69.2126 40.7385 67.8471C39.752 67.2091 38.7091 66.9341 37.64 67.0906C36.5895 67.2444 35.7042 67.788 34.9722 68.4109C33.8484 69.3674 32.7588 70.8205 31.7352 72.1857C31.4909 72.5115 31.2503 72.8323 31.0139 73.1402C29.6389 74.8529 28.3476 76.2984 26.8884 77.0868C25.592 77.7872 24.0808 78.0128 22.0207 77.0818C19.9717 75.3484 19.7641 74.323 19.8375 73.7152C19.8836 73.3335 20.0607 72.8884 20.4317 72.318C20.8068 71.7411 21.3112 71.1369 21.9304 70.4109C23.1451 68.9867 24.6985 67.1471 25.6683 64.7371C26.6587 62.2761 27.0138 59.3021 26.0252 55.6236ZM86.2708 78.4583C84.6977 78.4583 83.6014 77.862 82.878 77.0223C82.129 76.1531 81.7108 74.9373 81.7108 73.6458C81.7108 72.3469 82.1228 71.1319 82.8647 70.2664C83.5797 69.4323 84.673 68.8333 86.2708 68.8333C87.9745 68.8333 89.1361 69.4491 89.8863 70.2892C90.6602 71.1561 91.0833 72.363 91.0833 73.6458C91.0833 74.9287 90.6602 76.1356 89.8863 77.0024C89.1361 77.8426 87.9745 78.4583 86.2708 78.4583Z" fill="white" stroke="white" stroke-width="3"></path></svg> 