<?xml version="1.0" encoding="UTF-8"?> <svg xmlns="http://www.w3.org/2000/svg" width="101" height="101" viewBox="0 0 101 101" fill="none"><mask id="path-1-inside-1_254_397" fill="white"><path d="M47.3438 15.7812V6.3125C47.3438 5.47541 47.6763 4.67261 48.2682 4.08069C48.8601 3.48878 49.6629 3.15625 50.5 3.15625C51.3371 3.15625 52.1399 3.48878 52.7318 4.08069C53.3237 4.67261 53.6562 5.47541 53.6562 6.3125V15.7812C53.6562 16.6183 53.3237 17.4211 52.7318 18.0131C52.1399 18.605 51.3371 18.9375 50.5 18.9375C49.6629 18.9375 48.8601 18.605 48.2682 18.0131C47.6763 17.4211 47.3438 16.6183 47.3438 15.7812ZM75.75 50.5C75.75 55.494 74.2691 60.3758 71.4946 64.5281C68.7201 68.6805 64.7766 71.9168 60.1628 73.828C55.5489 75.7391 50.472 76.2391 45.574 75.2648C40.6759 74.2906 36.1768 71.8857 32.6456 68.3544C29.1143 64.8232 26.7094 60.3241 25.7352 55.426C24.7609 50.528 25.2609 45.4511 27.172 40.8372C29.0832 36.2234 32.3195 32.2799 36.4719 29.5054C40.6242 26.7309 45.506 25.25 50.5 25.25C57.1945 25.2573 63.6127 27.9199 68.3464 32.6536C73.0801 37.3873 75.7427 43.8055 75.75 50.5ZM69.4375 50.5C69.4375 46.7545 68.3268 43.0931 66.246 39.9789C64.1651 36.8646 61.2074 34.4374 57.7471 33.004C54.2867 31.5707 50.479 31.1957 46.8055 31.9264C43.132 32.6571 39.7576 34.4607 37.1092 37.1092C34.4607 39.7576 32.6571 43.132 31.9264 46.8055C31.1957 50.479 31.5707 54.2867 33.004 57.7471C34.4374 61.2074 36.8646 64.1651 39.9789 66.246C43.0931 68.3268 46.7545 69.4375 50.5 69.4375C55.5209 69.4323 60.3347 67.4354 63.8851 63.8851C67.4354 60.3347 69.4323 55.5209 69.4375 50.5ZM23.017 27.483C23.6092 28.0753 24.4124 28.408 25.25 28.408C26.0876 28.408 26.8908 28.0753 27.483 27.483C28.0753 26.8908 28.408 26.0876 28.408 25.25C28.408 24.4124 28.0753 23.6092 27.483 23.017L21.1705 16.7045C20.5783 16.1122 19.7751 15.7795 18.9375 15.7795C18.0999 15.7795 17.2967 16.1122 16.7045 16.7045C16.1122 17.2967 15.7795 18.0999 15.7795 18.9375C15.7795 19.7751 16.1122 20.5783 16.7045 21.1705L23.017 27.483ZM23.017 73.517L16.7045 79.8295C16.1122 80.4217 15.7795 81.2249 15.7795 82.0625C15.7795 82.9001 16.1122 83.7033 16.7045 84.2955C17.2967 84.8878 18.0999 85.2205 18.9375 85.2205C19.7751 85.2205 20.5783 84.8878 21.1705 84.2955L27.483 77.983C27.7763 77.6898 28.0089 77.3417 28.1676 76.9585C28.3263 76.5754 28.408 76.1647 28.408 75.75C28.408 75.3353 28.3263 74.9246 28.1676 74.5415C28.0089 74.1583 27.7763 73.8102 27.483 73.517C27.1898 73.2237 26.8417 72.9911 26.4585 72.8324C26.0754 72.6737 25.6647 72.592 25.25 72.592C24.8353 72.592 24.4246 72.6737 24.0415 72.8324C23.6583 72.9911 23.3102 73.2237 23.017 73.517ZM75.75 28.4062C76.1646 28.4066 76.5752 28.3252 76.9584 28.1668C77.3415 28.0084 77.6897 27.7761 77.983 27.483L84.2955 21.1705C84.8878 20.5783 85.2205 19.7751 85.2205 18.9375C85.2205 18.0999 84.8878 17.2967 84.2955 16.7045C83.7033 16.1122 82.9001 15.7795 82.0625 15.7795C81.2249 15.7795 80.4217 16.1122 79.8295 16.7045L73.517 23.017C73.075 23.4584 72.774 24.021 72.652 24.6336C72.5301 25.2461 72.5926 25.8811 72.8317 26.4582C73.0708 27.0352 73.4757 27.5283 73.9952 27.8751C74.5147 28.2219 75.1254 28.4067 75.75 28.4062ZM77.983 73.517C77.3908 72.9247 76.5876 72.592 75.75 72.592C74.9124 72.592 74.1092 72.9247 73.517 73.517C72.9247 74.1092 72.592 74.9124 72.592 75.75C72.592 76.5876 72.9247 77.3908 73.517 77.983L79.8295 84.2955C80.1227 84.5888 80.4708 84.8214 80.854 84.9801C81.2371 85.1388 81.6478 85.2205 82.0625 85.2205C82.4772 85.2205 82.8879 85.1388 83.271 84.9801C83.6542 84.8214 84.0023 84.5888 84.2955 84.2955C84.5888 84.0023 84.8214 83.6542 84.9801 83.271C85.1388 82.8879 85.2205 82.4772 85.2205 82.0625C85.2205 81.6478 85.1388 81.2371 84.9801 80.854C84.8214 80.4708 84.5888 80.1227 84.2955 79.8295L77.983 73.517ZM18.9375 50.5C18.9375 49.6629 18.605 48.8601 18.0131 48.2682C17.4211 47.6763 16.6183 47.3438 15.7812 47.3438H6.3125C5.47541 47.3438 4.67261 47.6763 4.08069 48.2682C3.48878 48.8601 3.15625 49.6629 3.15625 50.5C3.15625 51.3371 3.48878 52.1399 4.08069 52.7318C4.67261 53.3237 5.47541 53.6562 6.3125 53.6562H15.7812C16.6183 53.6562 17.4211 53.3237 18.0131 52.7318C18.605 52.1399 18.9375 51.3371 18.9375 50.5ZM50.5 82.0625C49.6629 82.0625 48.8601 82.395 48.2682 82.9869C47.6763 83.5788 47.3438 84.3817 47.3438 85.2188V94.6875C47.3438 95.5246 47.6763 96.3274 48.2682 96.9193C48.8601 97.5112 49.6629 97.8438 50.5 97.8438C51.3371 97.8438 52.1399 97.5112 52.7318 96.9193C53.3237 96.3274 53.6562 95.5246 53.6562 94.6875V85.2188C53.6562 84.3817 53.3237 83.5788 52.7318 82.9869C52.1399 82.395 51.3371 82.0625 50.5 82.0625ZM94.6875 47.3438H85.2188C84.3817 47.3438 83.5788 47.6763 82.9869 48.2682C82.395 48.8601 82.0625 49.6629 82.0625 50.5C82.0625 51.3371 82.395 52.1399 82.9869 52.7318C83.5788 53.3237 84.3817 53.6562 85.2188 53.6562H94.6875C95.5246 53.6562 96.3274 53.3237 96.9193 52.7318C97.5112 52.1399 97.8438 51.3371 97.8438 50.5C97.8438 49.6629 97.5112 48.8601 96.9193 48.2682C96.3274 47.6763 95.5246 47.3438 94.6875 47.3438Z"></path></mask><path d="M47.3438 15.7812V6.3125C47.3438 5.47541 47.6763 4.67261 48.2682 4.08069C48.8601 3.48878 49.6629 3.15625 50.5 3.15625C51.3371 3.15625 52.1399 3.48878 52.7318 4.08069C53.3237 4.67261 53.6562 5.47541 53.6562 6.3125V15.7812C53.6562 16.6183 53.3237 17.4211 52.7318 18.0131C52.1399 18.605 51.3371 18.9375 50.5 18.9375C49.6629 18.9375 48.8601 18.605 48.2682 18.0131C47.6763 17.4211 47.3438 16.6183 47.3438 15.7812ZM75.75 50.5C75.75 55.494 74.2691 60.3758 71.4946 64.5281C68.7201 68.6805 64.7766 71.9168 60.1628 73.828C55.5489 75.7391 50.472 76.2391 45.574 75.2648C40.6759 74.2906 36.1768 71.8857 32.6456 68.3544C29.1143 64.8232 26.7094 60.3241 25.7352 55.426C24.7609 50.528 25.2609 45.4511 27.172 40.8372C29.0832 36.2234 32.3195 32.2799 36.4719 29.5054C40.6242 26.7309 45.506 25.25 50.5 25.25C57.1945 25.2573 63.6127 27.9199 68.3464 32.6536C73.0801 37.3873 75.7427 43.8055 75.75 50.5ZM69.4375 50.5C69.4375 46.7545 68.3268 43.0931 66.246 39.9789C64.1651 36.8646 61.2074 34.4374 57.7471 33.004C54.2867 31.5707 50.479 31.1957 46.8055 31.9264C43.132 32.6571 39.7576 34.4607 37.1092 37.1092C34.4607 39.7576 32.6571 43.132 31.9264 46.8055C31.1957 50.479 31.5707 54.2867 33.004 57.7471C34.4374 61.2074 36.8646 64.1651 39.9789 66.246C43.0931 68.3268 46.7545 69.4375 50.5 69.4375C55.5209 69.4323 60.3347 67.4354 63.8851 63.8851C67.4354 60.3347 69.4323 55.5209 69.4375 50.5ZM23.017 27.483C23.6092 28.0753 24.4124 28.408 25.25 28.408C26.0876 28.408 26.8908 28.0753 27.483 27.483C28.0753 26.8908 28.408 26.0876 28.408 25.25C28.408 24.4124 28.0753 23.6092 27.483 23.017L21.1705 16.7045C20.5783 16.1122 19.7751 15.7795 18.9375 15.7795C18.0999 15.7795 17.2967 16.1122 16.7045 16.7045C16.1122 17.2967 15.7795 18.0999 15.7795 18.9375C15.7795 19.7751 16.1122 20.5783 16.7045 21.1705L23.017 27.483ZM23.017 73.517L16.7045 79.8295C16.1122 80.4217 15.7795 81.2249 15.7795 82.0625C15.7795 82.9001 16.1122 83.7033 16.7045 84.2955C17.2967 84.8878 18.0999 85.2205 18.9375 85.2205C19.7751 85.2205 20.5783 84.8878 21.1705 84.2955L27.483 77.983C27.7763 77.6898 28.0089 77.3417 28.1676 76.9585C28.3263 76.5754 28.408 76.1647 28.408 75.75C28.408 75.3353 28.3263 74.9246 28.1676 74.5415C28.0089 74.1583 27.7763 73.8102 27.483 73.517C27.1898 73.2237 26.8417 72.9911 26.4585 72.8324C26.0754 72.6737 25.6647 72.592 25.25 72.592C24.8353 72.592 24.4246 72.6737 24.0415 72.8324C23.6583 72.9911 23.3102 73.2237 23.017 73.517ZM75.75 28.4062C76.1646 28.4066 76.5752 28.3252 76.9584 28.1668C77.3415 28.0084 77.6897 27.7761 77.983 27.483L84.2955 21.1705C84.8878 20.5783 85.2205 19.7751 85.2205 18.9375C85.2205 18.0999 84.8878 17.2967 84.2955 16.7045C83.7033 16.1122 82.9001 15.7795 82.0625 15.7795C81.2249 15.7795 80.4217 16.1122 79.8295 16.7045L73.517 23.017C73.075 23.4584 72.774 24.021 72.652 24.6336C72.5301 25.2461 72.5926 25.8811 72.8317 26.4582C73.0708 27.0352 73.4757 27.5283 73.9952 27.8751C74.5147 28.2219 75.1254 28.4067 75.75 28.4062ZM77.983 73.517C77.3908 72.9247 76.5876 72.592 75.75 72.592C74.9124 72.592 74.1092 72.9247 73.517 73.517C72.9247 74.1092 72.592 74.9124 72.592 75.75C72.592 76.5876 72.9247 77.3908 73.517 77.983L79.8295 84.2955C80.1227 84.5888 80.4708 84.8214 80.854 84.9801C81.2371 85.1388 81.6478 85.2205 82.0625 85.2205C82.4772 85.2205 82.8879 85.1388 83.271 84.9801C83.6542 84.8214 84.0023 84.5888 84.2955 84.2955C84.5888 84.0023 84.8214 83.6542 84.9801 83.271C85.1388 82.8879 85.2205 82.4772 85.2205 82.0625C85.2205 81.6478 85.1388 81.2371 84.9801 80.854C84.8214 80.4708 84.5888 80.1227 84.2955 79.8295L77.983 73.517ZM18.9375 50.5C18.9375 49.6629 18.605 48.8601 18.0131 48.2682C17.4211 47.6763 16.6183 47.3438 15.7812 47.3438H6.3125C5.47541 47.3438 4.67261 47.6763 4.08069 48.2682C3.48878 48.8601 3.15625 49.6629 3.15625 50.5C3.15625 51.3371 3.48878 52.1399 4.08069 52.7318C4.67261 53.3237 5.47541 53.6562 6.3125 53.6562H15.7812C16.6183 53.6562 17.4211 53.3237 18.0131 52.7318C18.605 52.1399 18.9375 51.3371 18.9375 50.5ZM50.5 82.0625C49.6629 82.0625 48.8601 82.395 48.2682 82.9869C47.6763 83.5788 47.3438 84.3817 47.3438 85.2188V94.6875C47.3438 95.5246 47.6763 96.3274 48.2682 96.9193C48.8601 97.5112 49.6629 97.8438 50.5 97.8438C51.3371 97.8438 52.1399 97.5112 52.7318 96.9193C53.3237 96.3274 53.6562 95.5246 53.6562 94.6875V85.2188C53.6562 84.3817 53.3237 83.5788 52.7318 82.9869C52.1399 82.395 51.3371 82.0625 50.5 82.0625ZM94.6875 47.3438H85.2188C84.3817 47.3438 83.5788 47.6763 82.9869 48.2682C82.395 48.8601 82.0625 49.6629 82.0625 50.5C82.0625 51.3371 82.395 52.1399 82.9869 52.7318C83.5788 53.3237 84.3817 53.6562 85.2188 53.6562H94.6875C95.5246 53.6562 96.3274 53.3237 96.9193 52.7318C97.5112 52.1399 97.8438 51.3371 97.8438 50.5C97.8438 49.6629 97.5112 48.8601 96.9193 48.2682C96.3274 47.6763 95.5246 47.3438 94.6875 47.3438Z" fill="white" stroke="white" stroke-width="2" mask="url(#path-1-inside-1_254_397)"></path></svg> 