<?xml version="1.0" encoding="UTF-8"?> <svg xmlns="http://www.w3.org/2000/svg" width="101" height="101" viewBox="0 0 101 101" fill="none"><path d="M63.5355 41.2667L63.3604 41.9H64.0174H80.913C83.7406 41.9 86.145 42.5802 87.8295 43.8568C89.4973 45.1208 90.5 46.9978 90.5 49.5067C90.5 51.8526 89.0871 54.2486 87.1687 55.694L86.8101 55.9642L87.0403 56.3497C87.7934 57.6107 88.4826 59.0278 88.4826 60.4C88.4826 62.7043 86.8617 64.8463 84.9341 66.0565L84.5814 66.278L84.7355 66.665C85.2159 67.8715 85.4565 69.0753 85.4565 70.5333C85.4565 73.5658 83.3696 75.9508 80.4678 77.1654L79.9754 77.3716L80.2133 77.8494C80.4037 78.232 80.413 78.6136 80.413 79.4C80.413 81.0023 79.5514 82.777 78.0519 84.1628C76.5599 85.5417 74.472 86.5 72.087 86.5H48.1304C45.6301 86.5 43.3109 85.4144 40.8955 84.2837C40.5238 84.1097 40.1498 83.9347 39.7726 83.7623L39.6965 83.7241C37.4374 82.5892 35.4679 81.5998 33.5 81.4523V45.9511C39.0224 41.6399 45.8019 35.3007 48.5961 28.1554L48.6135 28.1109L48.6222 28.064L51.1376 14.4184C51.2554 14.0669 51.3629 13.8099 51.5101 13.5881C51.6549 13.3699 51.8525 13.1648 52.1748 12.9465C54.3398 11.742 56.011 11.5 58.2174 11.5C59.0262 11.5 59.8497 11.6734 60.6353 12.1355C61.4213 12.5979 62.1982 13.3662 62.8874 14.6004C64.2749 17.0852 65.2826 21.4153 65.2826 28.7333C65.2826 32.4896 64.784 36.7514 63.5355 41.2667ZM81.4034 70.8843L81.413 70.836V70.7867V70.28C81.413 68.6425 80.9295 67.671 80.5417 66.8918L80.5411 66.8905C80.1667 66.1383 79.9344 65.6531 80.1353 64.836C80.2159 64.5615 80.4324 64.315 80.8209 64.044C81.0786 63.8643 81.3558 63.7086 81.6635 63.5358C81.8447 63.4341 82.0364 63.3264 82.2409 63.2044C83.2845 62.582 84.4391 61.6922 84.4391 59.8933C84.4391 58.204 83.7243 57.2066 83.1357 56.4511L83.1013 56.4068C82.5138 55.653 82.2394 55.3009 82.3996 54.7211C82.4785 54.4933 82.6745 54.2717 83.0291 54.0009C83.2049 53.8666 83.4014 53.7332 83.6208 53.5844L83.6213 53.5841C83.8365 53.4382 84.0711 53.2791 84.3031 53.1043C84.7682 52.7539 85.2483 52.322 85.6097 51.7366C85.9753 51.1443 86.2044 50.4195 86.2044 49.5067C86.2044 48.3831 85.4835 47.4857 84.5147 46.8948C83.5416 46.3013 82.2505 45.9667 80.913 45.9667H58.2174C57.5752 45.9667 57.0786 45.7539 56.7435 45.4173C56.4082 45.0805 56.1957 44.5804 56.1957 43.9333C56.1957 43.2863 56.4082 42.7862 56.7435 42.4494C57.0786 42.1128 57.5752 41.9 58.2174 41.9H58.7217H59.1076L59.2054 41.5267C60.4701 36.6989 61.2391 32.5971 61.2391 28.7333C61.2391 23.8882 60.7318 20.6722 60.1477 18.6512C59.8561 17.642 59.5418 16.9185 59.2535 16.4357C59.1101 16.1957 58.965 16.0014 58.8215 15.86C58.7498 15.7893 58.669 15.7224 58.5795 15.6705C58.4946 15.6213 58.3691 15.5667 58.2174 15.5667H58.1894C56.9496 15.5667 56.1383 15.5666 55.0695 15.8351L54.7561 15.9138L54.6991 16.2318L52.4296 28.8985L52.4217 28.9422V28.9867V29.4099C49.428 38.0847 41.502 45.0717 35.2183 49.8693L35.0217 50.0193V50.2667V76.8667V77.2566L35.3999 77.3516C37.354 77.8424 39.3206 78.8277 41.3495 79.8468L41.434 79.8892C43.8843 81.1202 45.994 82.18 48.1304 82.18H72.087C73.1723 82.18 74.2157 81.9086 75.0041 81.4046C75.7958 80.8985 76.3696 80.125 76.3696 79.1467C76.3696 77.9603 76.2352 77.1585 76.137 76.5722C76.1159 76.4464 76.0965 76.3305 76.0804 76.2228C76.0349 75.9185 76.02 75.7052 76.0461 75.507C76.0703 75.3231 76.1338 75.1255 76.2834 74.8691C76.3282 74.8157 76.4087 74.746 76.5449 74.6621C76.6928 74.5711 76.8803 74.4789 77.1068 74.3795C77.297 74.296 77.5025 74.2126 77.7244 74.1225C77.7668 74.1053 77.8098 74.0878 77.8533 74.0701C78.1216 73.9609 78.4081 73.8426 78.6945 73.711C79.812 73.1978 81.0997 72.4101 81.4034 70.8843Z" fill="white" stroke="white"></path><path d="M15 45.6111H14.5V46.1111V81.8889V82.3889H15H30H30.5V81.8889V46.1111V45.6111H30H15ZM30 86.5H15C12.5364 86.5 10.5 84.4343 10.5 81.8889V46.1111C10.5 43.5657 12.5364 41.5 15 41.5H30C32.4636 41.5 34.5 43.5657 34.5 46.1111V81.8889C34.5 84.4343 32.4636 86.5 30 86.5Z" fill="white" stroke="white"></path></svg> 