<?xml version="1.0" encoding="UTF-8"?> <svg xmlns="http://www.w3.org/2000/svg" width="102" height="102" viewBox="0 0 102 102" fill="none"><g clip-path="url(#clip0_254_263)"><path d="M33.9511 68.861C34.2277 68.9532 34.4834 69.099 34.7036 69.2901C34.9238 69.4813 35.1042 69.7139 35.2344 69.9748C35.3647 70.2357 35.4422 70.5196 35.4626 70.8105C35.483 71.1014 35.4459 71.3934 35.3534 71.6699L33.1346 78.3261C33.051 78.6127 32.9105 78.8794 32.7215 79.1103C32.5324 79.3413 32.2987 79.5317 32.0344 79.6702C31.77 79.8087 31.4804 79.8925 31.1829 79.9165C30.8854 79.9405 30.5861 79.9042 30.303 79.8098C30.0198 79.7154 29.7587 79.5649 29.535 79.3672C29.3114 79.1695 29.13 78.9287 29.0016 78.6593C28.8732 78.3899 28.8005 78.0973 28.7879 77.7991C28.7752 77.5009 28.8228 77.2033 28.9279 76.9239L31.1466 70.2676C31.332 69.7092 31.7316 69.2473 32.2576 68.9835C32.7835 68.7197 33.3927 68.6757 33.9511 68.861ZM47.2636 68.861C47.5402 68.9532 47.7959 69.099 48.0161 69.2901C48.2363 69.4813 48.4167 69.7139 48.5469 69.9748C48.6772 70.2357 48.7547 70.5196 48.7751 70.8105C48.7955 71.1014 48.7584 71.3934 48.6659 71.6699L44.2284 84.9824C44.1448 85.2689 44.0043 85.5356 43.8152 85.7666C43.6262 85.9975 43.3925 86.188 43.1281 86.3265C42.8637 86.465 42.5741 86.5487 42.2766 86.5727C41.9792 86.5967 41.6799 86.5604 41.3967 86.466C41.1136 86.3717 40.8524 86.2211 40.6288 86.0234C40.4052 85.8258 40.2238 85.585 40.0954 85.3156C39.967 85.0461 39.8943 84.7536 39.8816 84.4554C39.8689 84.1572 39.9166 83.8595 40.0216 83.5801L44.4591 70.2676C44.6445 69.7092 45.0441 69.2473 45.5701 68.9835C46.096 68.7197 46.7052 68.6757 47.2636 68.861ZM60.5761 68.861C60.8527 68.9532 61.1084 69.099 61.3286 69.2901C61.5488 69.4813 61.7292 69.7139 61.8594 69.9748C61.9897 70.2357 62.0672 70.5196 62.0876 70.8105C62.108 71.1014 62.0709 71.3934 61.9784 71.6699L59.7596 78.3261C59.676 78.6127 59.5355 78.8794 59.3465 79.1103C59.1574 79.3413 58.9237 79.5317 58.6594 79.6702C58.395 79.8087 58.1054 79.8925 57.8079 79.9165C57.5104 79.9405 57.2111 79.9042 56.928 79.8098C56.6448 79.7154 56.3836 79.5649 56.16 79.3672C55.9364 79.1695 55.755 78.9287 55.6266 78.6593C55.4982 78.3899 55.4255 78.0973 55.4129 77.7991C55.4002 77.5009 55.4478 77.2033 55.5529 76.9239L57.7716 70.2676C57.957 69.7092 58.3566 69.2473 58.8826 68.9835C59.4085 68.7197 60.0177 68.6757 60.5761 68.861ZM73.8886 68.861C74.1652 68.9532 74.4209 69.099 74.6411 69.2901C74.8613 69.4813 75.0417 69.7139 75.1719 69.9748C75.3022 70.2357 75.3797 70.5196 75.4001 70.8105C75.4205 71.1014 75.3834 71.3934 75.2909 71.6699L70.8534 84.9824C70.7698 85.2689 70.6293 85.5356 70.4402 85.7666C70.2512 85.9975 70.0175 86.188 69.7531 86.3265C69.4887 86.465 69.1991 86.5487 68.9016 86.5727C68.6041 86.5967 68.3049 86.5604 68.0217 86.466C67.7386 86.3717 67.4774 86.2211 67.2538 86.0234C67.0302 85.8258 66.8488 85.585 66.7204 85.3156C66.592 85.0461 66.5193 84.7536 66.5066 84.4554C66.4939 84.1572 66.5416 83.8595 66.6466 83.5801L71.0841 70.2676C71.2695 69.7092 71.6691 69.2473 72.1951 68.9835C72.721 68.7197 73.3302 68.6757 73.8886 68.861ZM74.9847 37.8073C74.0632 33.162 71.6797 28.9333 68.1829 25.7395C64.686 22.5457 60.2591 20.5543 55.5495 20.0565C50.8399 19.5587 46.0945 20.5806 42.0072 22.9728C37.92 25.365 34.7052 29.002 32.8329 33.3521C30.7332 33.1102 28.6063 33.2994 26.5823 33.9081C24.5583 34.5169 22.6798 35.5323 21.0619 36.8922C19.444 38.2522 18.1207 39.928 17.173 41.8172C16.2253 43.7063 15.6732 45.7691 15.5504 47.879C15.4276 49.989 15.7368 52.1018 16.459 54.0882C17.1811 56.0745 18.3011 57.8926 19.7504 59.431C21.1996 60.9694 22.9476 62.1959 24.8873 63.0352C26.8271 63.8746 28.9177 64.3092 31.0312 64.3125H73.1875C76.5649 64.3164 79.8175 63.0364 82.2865 60.7318C84.7555 58.4272 86.2562 55.2703 86.4847 51.9006C86.7132 48.5309 85.6523 45.2004 83.5171 42.5836C81.3818 39.9668 78.3317 38.2594 74.9847 37.8073Z" fill="white"></path></g><defs><clipPath id="clip0_254_263"><rect width="71" height="71" fill="white" transform="translate(15.5 15.5)"></rect></clipPath></defs></svg> 