<?xml version="1.0" encoding="UTF-8"?> <svg xmlns="http://www.w3.org/2000/svg" width="102" height="102" viewBox="0 0 102 102" fill="none"><path d="M26.5253 56.1236L26.5253 56.1236L26.5223 56.1126C26.2313 55.0617 25.6176 54.2809 24.7865 53.7587C24.0038 53.2669 23.0976 53.0469 22.2437 52.9368C21.3821 52.8257 20.4478 52.8127 19.5475 52.8174C19.2656 52.8188 18.9883 52.8219 18.7136 52.825C18.0775 52.8322 17.4551 52.8392 16.82 52.8249C15.021 52.7835 13.5359 52.5693 12.4719 51.9121C11.535 51.3334 10.7027 50.2677 10.5393 47.9085L10.5383 47.8941L10.5371 47.8797C10.4311 46.6836 10.7998 45.9532 11.3956 45.3713C12.0729 44.7098 13.0897 44.2004 14.3633 43.6783C14.576 43.5925 14.8004 43.5049 15.0321 43.4145C16.0846 43.0035 17.2875 42.5339 18.2351 41.9122C19.504 41.0797 20.5603 39.8277 20.6002 37.8771C20.6756 36.2264 20.1504 34.8589 19.5279 33.7205C19.2189 33.1555 18.8736 32.6255 18.5603 32.1499C18.5307 32.1051 18.5015 32.0608 18.4727 32.017C18.1848 31.5805 17.9301 31.1944 17.7063 30.8071C17.2186 29.963 16.997 29.3073 17.0414 28.6435C17.0845 28.0011 17.3962 27.0999 18.5025 25.8257C19.4096 25.1027 20.1935 24.7724 20.8698 24.659C21.5643 24.5425 22.2557 24.6363 22.9911 24.9226C24.5505 25.5298 26.11 26.9072 27.9207 28.6102C28.036 28.7186 28.1523 28.8283 28.2696 28.9389C29.8861 30.4638 31.6978 32.1727 33.6483 33.1673C34.7292 33.7185 35.9198 34.0901 37.2119 34.0832C38.5161 34.0763 39.8184 33.6841 41.1114 32.8681L41.1237 32.8603L41.1358 32.8523C42.2811 32.0981 43.004 31.0999 43.2454 29.8944C43.4741 28.7518 43.2311 27.6114 42.8521 26.5976C42.2692 25.0386 41.1713 23.3304 40.1747 21.78C39.9188 21.3817 39.6695 20.9939 39.4374 20.6216C38.8351 19.656 38.3175 18.7637 37.9567 17.9392C37.5914 17.1045 37.4384 16.4526 37.4544 15.9505C37.4685 15.5111 37.6099 15.1358 38.0035 14.761C38.4424 14.3431 39.2548 13.8745 40.7063 13.4778L40.7112 13.4764C41.9017 13.1467 42.8133 13.1291 43.5285 13.2769C44.2347 13.4228 44.8364 13.7475 45.3888 14.2397C46.5583 15.2816 47.4473 17.0042 48.405 19.1964L48.405 19.1964L48.41 19.2075C48.5847 19.5988 48.7615 20.0055 48.9422 20.4214C49.716 22.2016 50.5633 24.1511 51.6414 25.7865C53.0104 27.8632 54.8912 29.6662 57.7466 30.2113L57.7555 30.213C61.7823 30.9568 65.1087 28.9102 67.8321 26.2364C69.9938 24.1142 71.9957 21.3725 73.8477 18.8362C74.3151 18.196 74.7731 17.5689 75.2216 16.9682C76.3585 15.4453 77.4508 14.0732 78.5342 12.9726C79.626 11.8634 80.6281 11.1145 81.5625 10.7407C82.4435 10.3883 83.2832 10.358 84.1937 10.7343C85.1601 11.1337 86.3269 12.0434 87.6814 13.823L87.6906 13.8351L87.7001 13.8471C89.183 15.7155 89.8257 17.1931 89.989 18.352C90.1452 19.461 89.881 20.4002 89.2729 21.2893C88.6369 22.219 87.6105 23.1091 86.2362 23.9912C84.8744 24.8652 83.2611 25.6754 81.5238 26.4872C80.8713 26.7723 80.1969 27.0589 79.5132 27.3495C76.6461 28.5682 73.6159 29.8562 71.3531 31.3886C69.9284 32.3535 68.6528 33.5109 67.8943 34.9575C67.1037 36.4652 66.9393 38.1665 67.5436 40.0186L67.5448 40.0224C67.923 41.1709 68.5889 42.0646 69.5893 42.5706C70.5391 43.051 71.5783 43.0715 72.5006 42.95C73.4292 42.8277 74.4077 42.5372 75.341 42.2241C75.7923 42.0727 76.2536 41.9087 76.7072 41.7475L76.772 41.7245C77.2513 41.5541 77.724 41.3866 78.1973 41.2289L78.2019 41.2273C80.1356 40.5757 81.7859 40.2124 83.1172 40.5118C84.2559 40.7678 85.4713 41.5898 86.3609 44.203L86.3617 44.2053C86.8377 45.596 86.8531 46.549 86.6843 47.202C86.5232 47.8254 86.155 48.3299 85.5319 48.7701C84.1702 49.732 81.8417 50.221 78.9581 50.5179C77.8345 50.6335 76.6878 50.7158 75.5405 50.7981C75.2558 50.8185 74.9711 50.839 74.6867 50.8599C73.2765 50.9637 71.8724 51.0803 70.6223 51.2748C69.3936 51.4659 68.1812 51.7503 67.2126 52.2525C66.2139 52.7703 65.2894 53.6278 65.0877 54.9843C64.7252 57.3408 66.1682 58.8789 67.6493 59.892C68.3965 60.4031 69.25 60.8525 70.0781 61.2666C70.3607 61.4079 70.6375 61.5437 70.9105 61.6778C71.4674 61.9511 72.0087 62.2168 72.5513 62.5051C74.1812 63.3928 75.3612 64.2675 75.9365 65.3461C76.4416 66.2933 76.629 67.7001 75.5164 70.0677C74.6595 71.4732 73.8055 72.3234 73.005 72.8219C72.2082 73.3182 71.3929 73.5111 70.5318 73.4931C68.7109 73.4549 66.6719 72.4824 64.3897 71.13C63.9688 70.8806 63.5364 70.6171 63.0967 70.3492C61.3043 69.257 59.3904 68.0908 57.6388 67.5007C56.5071 67.1195 55.274 66.9115 54.0466 67.1871C52.7999 67.467 51.7383 68.2049 50.8833 69.3727C48.9911 71.5038 48.8857 74.1806 49.2595 76.6241C49.5079 78.2479 50.0225 80.0319 50.4955 81.6714C50.7179 82.4425 50.9312 83.1817 51.1032 83.8572C51.6973 86.213 51.8579 87.9137 51.33 89.0934C50.892 90.0721 49.7419 91.1376 46.3873 91.5699C45.2225 91.3873 44.4789 91.0299 43.9922 90.6247C43.49 90.2065 43.1539 89.6482 42.9531 88.9047C42.5229 87.3119 42.7684 85.1209 43.2582 82.5015C43.3443 82.0408 43.4376 81.5664 43.5325 81.0837C43.9465 78.977 44.3916 76.712 44.4146 74.7367C44.4432 72.2834 43.825 69.7126 41.2385 68.3471C40.252 67.7091 39.2092 67.4341 38.14 67.5906C37.0895 67.7444 36.2042 68.288 35.4723 68.9109C34.3484 69.8674 33.2588 71.3205 32.2352 72.6857C31.9909 73.0115 31.7503 73.3323 31.5139 73.6402C30.1389 75.3529 28.8477 76.7984 27.3884 77.5868C26.0921 78.2872 24.5809 78.5128 22.5207 77.5818C20.4717 75.8484 20.2641 74.823 20.3375 74.2152C20.3836 73.8335 20.5607 73.3884 20.9317 72.818C21.3069 72.2411 21.8112 71.6369 22.4304 70.9109C23.6452 69.4867 25.1985 67.6471 26.1684 65.2371C27.1588 62.7761 27.5139 59.8021 26.5253 56.1236ZM86.7708 78.9583C85.1978 78.9583 84.1014 78.362 83.378 77.5223C82.629 76.6531 82.2108 75.4373 82.2108 74.1458C82.2108 72.8469 82.6228 71.6319 83.3647 70.7664C84.0797 69.9323 85.173 69.3333 86.7708 69.3333C88.4745 69.3333 89.6362 69.9491 90.3863 70.7892C91.1603 71.6561 91.5833 72.863 91.5833 74.1458C91.5833 75.4287 91.1603 76.6356 90.3863 77.5024C89.6362 78.3426 88.4745 78.9583 86.7708 78.9583Z" fill="white" stroke="white" stroke-width="3"></path></svg> 