<?xml version="1.0" encoding="UTF-8"?> <svg xmlns="http://www.w3.org/2000/svg" width="102" height="102" viewBox="0 0 102 102" fill="none"><mask id="path-1-inside-1_254_250" fill="white"><path d="M47.8438 16.2812V6.8125C47.8438 5.97541 48.1763 5.17261 48.7682 4.58069C49.3601 3.98878 50.1629 3.65625 51 3.65625C51.8371 3.65625 52.6399 3.98878 53.2318 4.58069C53.8237 5.17261 54.1562 5.97541 54.1562 6.8125V16.2812C54.1562 17.1183 53.8237 17.9211 53.2318 18.5131C52.6399 19.105 51.8371 19.4375 51 19.4375C50.1629 19.4375 49.3601 19.105 48.7682 18.5131C48.1763 17.9211 47.8438 17.1183 47.8438 16.2812ZM76.25 51C76.25 55.994 74.7691 60.8758 71.9946 65.0281C69.2201 69.1805 65.2766 72.4168 60.6628 74.328C56.0489 76.2391 50.972 76.7391 46.074 75.7648C41.1759 74.7906 36.6768 72.3857 33.1456 68.8544C29.6143 65.3232 27.2094 60.8241 26.2352 55.926C25.2609 51.028 25.7609 45.9511 27.672 41.3372C29.5832 36.7234 32.8195 32.7799 36.9719 30.0054C41.1242 27.2309 46.006 25.75 51 25.75C57.6945 25.7573 64.1127 28.4199 68.8464 33.1536C73.5801 37.8873 76.2427 44.3055 76.25 51ZM69.9375 51C69.9375 47.2545 68.8268 43.5931 66.746 40.4789C64.6651 37.3646 61.7074 34.9374 58.2471 33.504C54.7867 32.0707 50.979 31.6957 47.3055 32.4264C43.632 33.1571 40.2576 34.9607 37.6092 37.6092C34.9607 40.2576 33.1571 43.632 32.4264 47.3055C31.6957 50.979 32.0707 54.7867 33.504 58.2471C34.9374 61.7074 37.3646 64.6651 40.4789 66.746C43.5931 68.8268 47.2545 69.9375 51 69.9375C56.0209 69.9323 60.8347 67.9354 64.3851 64.3851C67.9354 60.8347 69.9323 56.0209 69.9375 51ZM23.517 27.983C24.1092 28.5753 24.9124 28.908 25.75 28.908C26.5876 28.908 27.3908 28.5753 27.983 27.983C28.5753 27.3908 28.908 26.5876 28.908 25.75C28.908 24.9124 28.5753 24.1092 27.983 23.517L21.6705 17.2045C21.0783 16.6122 20.2751 16.2795 19.4375 16.2795C18.5999 16.2795 17.7967 16.6122 17.2045 17.2045C16.6122 17.7967 16.2795 18.5999 16.2795 19.4375C16.2795 20.2751 16.6122 21.0783 17.2045 21.6705L23.517 27.983ZM23.517 74.017L17.2045 80.3295C16.6122 80.9217 16.2795 81.7249 16.2795 82.5625C16.2795 83.4001 16.6122 84.2033 17.2045 84.7955C17.7967 85.3878 18.5999 85.7205 19.4375 85.7205C20.2751 85.7205 21.0783 85.3878 21.6705 84.7955L27.983 78.483C28.2763 78.1898 28.5089 77.8417 28.6676 77.4585C28.8263 77.0754 28.908 76.6647 28.908 76.25C28.908 75.8353 28.8263 75.4246 28.6676 75.0415C28.5089 74.6583 28.2763 74.3102 27.983 74.017C27.6898 73.7237 27.3417 73.4911 26.9585 73.3324C26.5754 73.1737 26.1647 73.092 25.75 73.092C25.3353 73.092 24.9246 73.1737 24.5415 73.3324C24.1583 73.4911 23.8102 73.7237 23.517 74.017ZM76.25 28.9062C76.6646 28.9066 77.0752 28.8252 77.4584 28.6668C77.8415 28.5084 78.1897 28.2761 78.483 27.983L84.7955 21.6705C85.3878 21.0783 85.7205 20.2751 85.7205 19.4375C85.7205 18.5999 85.3878 17.7967 84.7955 17.2045C84.2033 16.6122 83.4001 16.2795 82.5625 16.2795C81.7249 16.2795 80.9217 16.6122 80.3295 17.2045L74.017 23.517C73.575 23.9584 73.274 24.521 73.152 25.1336C73.0301 25.7461 73.0926 26.3811 73.3317 26.9582C73.5708 27.5352 73.9757 28.0283 74.4952 28.3751C75.0147 28.7219 75.6254 28.9067 76.25 28.9062ZM78.483 74.017C77.8908 73.4247 77.0876 73.092 76.25 73.092C75.4124 73.092 74.6092 73.4247 74.017 74.017C73.4247 74.6092 73.092 75.4124 73.092 76.25C73.092 77.0876 73.4247 77.8908 74.017 78.483L80.3295 84.7955C80.6227 85.0888 80.9708 85.3214 81.354 85.4801C81.7371 85.6388 82.1478 85.7205 82.5625 85.7205C82.9772 85.7205 83.3879 85.6388 83.771 85.4801C84.1542 85.3214 84.5023 85.0888 84.7955 84.7955C85.0888 84.5023 85.3214 84.1542 85.4801 83.771C85.6388 83.3879 85.7205 82.9772 85.7205 82.5625C85.7205 82.1478 85.6388 81.7371 85.4801 81.354C85.3214 80.9708 85.0888 80.6227 84.7955 80.3295L78.483 74.017ZM19.4375 51C19.4375 50.1629 19.105 49.3601 18.5131 48.7682C17.9211 48.1763 17.1183 47.8438 16.2812 47.8438H6.8125C5.97541 47.8438 5.17261 48.1763 4.58069 48.7682C3.98878 49.3601 3.65625 50.1629 3.65625 51C3.65625 51.8371 3.98878 52.6399 4.58069 53.2318C5.17261 53.8237 5.97541 54.1562 6.8125 54.1562H16.2812C17.1183 54.1562 17.9211 53.8237 18.5131 53.2318C19.105 52.6399 19.4375 51.8371 19.4375 51ZM51 82.5625C50.1629 82.5625 49.3601 82.895 48.7682 83.4869C48.1763 84.0788 47.8438 84.8817 47.8438 85.7188V95.1875C47.8438 96.0246 48.1763 96.8274 48.7682 97.4193C49.3601 98.0112 50.1629 98.3438 51 98.3438C51.8371 98.3438 52.6399 98.0112 53.2318 97.4193C53.8237 96.8274 54.1562 96.0246 54.1562 95.1875V85.7188C54.1562 84.8817 53.8237 84.0788 53.2318 83.4869C52.6399 82.895 51.8371 82.5625 51 82.5625ZM95.1875 47.8438H85.7188C84.8817 47.8438 84.0788 48.1763 83.4869 48.7682C82.895 49.3601 82.5625 50.1629 82.5625 51C82.5625 51.8371 82.895 52.6399 83.4869 53.2318C84.0788 53.8237 84.8817 54.1562 85.7188 54.1562H95.1875C96.0246 54.1562 96.8274 53.8237 97.4193 53.2318C98.0112 52.6399 98.3438 51.8371 98.3438 51C98.3438 50.1629 98.0112 49.3601 97.4193 48.7682C96.8274 48.1763 96.0246 47.8438 95.1875 47.8438Z"></path></mask><path d="M47.8438 16.2812V6.8125C47.8438 5.97541 48.1763 5.17261 48.7682 4.58069C49.3601 3.98878 50.1629 3.65625 51 3.65625C51.8371 3.65625 52.6399 3.98878 53.2318 4.58069C53.8237 5.17261 54.1562 5.97541 54.1562 6.8125V16.2812C54.1562 17.1183 53.8237 17.9211 53.2318 18.5131C52.6399 19.105 51.8371 19.4375 51 19.4375C50.1629 19.4375 49.3601 19.105 48.7682 18.5131C48.1763 17.9211 47.8438 17.1183 47.8438 16.2812ZM76.25 51C76.25 55.994 74.7691 60.8758 71.9946 65.0281C69.2201 69.1805 65.2766 72.4168 60.6628 74.328C56.0489 76.2391 50.972 76.7391 46.074 75.7648C41.1759 74.7906 36.6768 72.3857 33.1456 68.8544C29.6143 65.3232 27.2094 60.8241 26.2352 55.926C25.2609 51.028 25.7609 45.9511 27.672 41.3372C29.5832 36.7234 32.8195 32.7799 36.9719 30.0054C41.1242 27.2309 46.006 25.75 51 25.75C57.6945 25.7573 64.1127 28.4199 68.8464 33.1536C73.5801 37.8873 76.2427 44.3055 76.25 51ZM69.9375 51C69.9375 47.2545 68.8268 43.5931 66.746 40.4789C64.6651 37.3646 61.7074 34.9374 58.2471 33.504C54.7867 32.0707 50.979 31.6957 47.3055 32.4264C43.632 33.1571 40.2576 34.9607 37.6092 37.6092C34.9607 40.2576 33.1571 43.632 32.4264 47.3055C31.6957 50.979 32.0707 54.7867 33.504 58.2471C34.9374 61.7074 37.3646 64.6651 40.4789 66.746C43.5931 68.8268 47.2545 69.9375 51 69.9375C56.0209 69.9323 60.8347 67.9354 64.3851 64.3851C67.9354 60.8347 69.9323 56.0209 69.9375 51ZM23.517 27.983C24.1092 28.5753 24.9124 28.908 25.75 28.908C26.5876 28.908 27.3908 28.5753 27.983 27.983C28.5753 27.3908 28.908 26.5876 28.908 25.75C28.908 24.9124 28.5753 24.1092 27.983 23.517L21.6705 17.2045C21.0783 16.6122 20.2751 16.2795 19.4375 16.2795C18.5999 16.2795 17.7967 16.6122 17.2045 17.2045C16.6122 17.7967 16.2795 18.5999 16.2795 19.4375C16.2795 20.2751 16.6122 21.0783 17.2045 21.6705L23.517 27.983ZM23.517 74.017L17.2045 80.3295C16.6122 80.9217 16.2795 81.7249 16.2795 82.5625C16.2795 83.4001 16.6122 84.2033 17.2045 84.7955C17.7967 85.3878 18.5999 85.7205 19.4375 85.7205C20.2751 85.7205 21.0783 85.3878 21.6705 84.7955L27.983 78.483C28.2763 78.1898 28.5089 77.8417 28.6676 77.4585C28.8263 77.0754 28.908 76.6647 28.908 76.25C28.908 75.8353 28.8263 75.4246 28.6676 75.0415C28.5089 74.6583 28.2763 74.3102 27.983 74.017C27.6898 73.7237 27.3417 73.4911 26.9585 73.3324C26.5754 73.1737 26.1647 73.092 25.75 73.092C25.3353 73.092 24.9246 73.1737 24.5415 73.3324C24.1583 73.4911 23.8102 73.7237 23.517 74.017ZM76.25 28.9062C76.6646 28.9066 77.0752 28.8252 77.4584 28.6668C77.8415 28.5084 78.1897 28.2761 78.483 27.983L84.7955 21.6705C85.3878 21.0783 85.7205 20.2751 85.7205 19.4375C85.7205 18.5999 85.3878 17.7967 84.7955 17.2045C84.2033 16.6122 83.4001 16.2795 82.5625 16.2795C81.7249 16.2795 80.9217 16.6122 80.3295 17.2045L74.017 23.517C73.575 23.9584 73.274 24.521 73.152 25.1336C73.0301 25.7461 73.0926 26.3811 73.3317 26.9582C73.5708 27.5352 73.9757 28.0283 74.4952 28.3751C75.0147 28.7219 75.6254 28.9067 76.25 28.9062ZM78.483 74.017C77.8908 73.4247 77.0876 73.092 76.25 73.092C75.4124 73.092 74.6092 73.4247 74.017 74.017C73.4247 74.6092 73.092 75.4124 73.092 76.25C73.092 77.0876 73.4247 77.8908 74.017 78.483L80.3295 84.7955C80.6227 85.0888 80.9708 85.3214 81.354 85.4801C81.7371 85.6388 82.1478 85.7205 82.5625 85.7205C82.9772 85.7205 83.3879 85.6388 83.771 85.4801C84.1542 85.3214 84.5023 85.0888 84.7955 84.7955C85.0888 84.5023 85.3214 84.1542 85.4801 83.771C85.6388 83.3879 85.7205 82.9772 85.7205 82.5625C85.7205 82.1478 85.6388 81.7371 85.4801 81.354C85.3214 80.9708 85.0888 80.6227 84.7955 80.3295L78.483 74.017ZM19.4375 51C19.4375 50.1629 19.105 49.3601 18.5131 48.7682C17.9211 48.1763 17.1183 47.8438 16.2812 47.8438H6.8125C5.97541 47.8438 5.17261 48.1763 4.58069 48.7682C3.98878 49.3601 3.65625 50.1629 3.65625 51C3.65625 51.8371 3.98878 52.6399 4.58069 53.2318C5.17261 53.8237 5.97541 54.1562 6.8125 54.1562H16.2812C17.1183 54.1562 17.9211 53.8237 18.5131 53.2318C19.105 52.6399 19.4375 51.8371 19.4375 51ZM51 82.5625C50.1629 82.5625 49.3601 82.895 48.7682 83.4869C48.1763 84.0788 47.8438 84.8817 47.8438 85.7188V95.1875C47.8438 96.0246 48.1763 96.8274 48.7682 97.4193C49.3601 98.0112 50.1629 98.3438 51 98.3438C51.8371 98.3438 52.6399 98.0112 53.2318 97.4193C53.8237 96.8274 54.1562 96.0246 54.1562 95.1875V85.7188C54.1562 84.8817 53.8237 84.0788 53.2318 83.4869C52.6399 82.895 51.8371 82.5625 51 82.5625ZM95.1875 47.8438H85.7188C84.8817 47.8438 84.0788 48.1763 83.4869 48.7682C82.895 49.3601 82.5625 50.1629 82.5625 51C82.5625 51.8371 82.895 52.6399 83.4869 53.2318C84.0788 53.8237 84.8817 54.1562 85.7188 54.1562H95.1875C96.0246 54.1562 96.8274 53.8237 97.4193 53.2318C98.0112 52.6399 98.3438 51.8371 98.3438 51C98.3438 50.1629 98.0112 49.3601 97.4193 48.7682C96.8274 48.1763 96.0246 47.8438 95.1875 47.8438Z" fill="white" stroke="#36CAC2" stroke-width="2" mask="url(#path-1-inside-1_254_250)"></path></svg> 